<?xml version="1.0" standalone="no"?>
<!DOCTYPE svg PUBLIC "-//W3C//DTD SVG 20010904//EN"
 "http://www.w3.org/TR/2001/REC-SVG-20010904/DTD/svg10.dtd">
<svg version="1.0" xmlns="http://www.w3.org/2000/svg"
 width="192.000000pt" height="192.000000pt" viewBox="0 0 192.000000 192.000000"
 preserveAspectRatio="xMidYMid meet">

<g transform="translate(0.000000,192.000000) scale(0.100000,-0.100000)"
fill="#000000" stroke="none">
<path d="M530 1898 c-43 -30 -70 -67 -79 -109 l-7 -34 -164 -5 c-191 -6 -222
-17 -259 -94 -30 -60 -30 -180 -1 -196 11 -6 24 -9 29 -6 5 3 10 41 13 83 2
43 11 88 19 101 33 52 33 52 630 50 l552 -3 21 -28 c19 -26 21 -44 24 -193 3
-155 2 -164 -16 -164 -10 0 -28 -10 -40 -23 -18 -19 -22 -35 -22 -84 0 -74 6
-93 31 -93 31 0 22 -15 -46 -75 -51 -44 -68 -67 -77 -99 l-11 -42 -51 9 c-62
11 -153 -5 -190 -34 -23 -18 -26 -28 -26 -80 l0 -60 -35 27 c-105 80 -251 70
-346 -22 l-36 -35 -151 3 c-134 3 -154 5 -179 24 -47 35 -52 65 -52 366 -1
169 -5 279 -11 283 -5 3 -19 1 -30 -5 -19 -10 -20 -20 -20 -300 0 -180 4 -299
11 -317 14 -38 57 -83 96 -99 22 -10 76 -14 171 -14 l139 0 -5 -70 c-6 -85 13
-141 64 -194 53 -55 108 -79 181 -80 l63 -1 0 -131 c0 -88 4 -134 12 -142 16
-16 92 -15 161 3 75 19 148 57 197 101 50 45 100 144 100 197 0 39 0 39 31 33
17 -3 36 -6 41 -6 5 0 2 -10 -6 -22 -32 -46 -22 -67 86 -175 119 -119 140
-127 203 -72 38 33 44 59 20 79 -13 11 -21 8 -50 -20 -30 -29 -36 -32 -52 -20
-39 30 -163 155 -163 165 0 16 365 375 381 375 8 0 52 -38 99 -85 l84 -85
-123 -125 c-105 -106 -122 -127 -111 -140 7 -8 20 -15 30 -15 9 0 71 56 138
124 99 101 122 130 122 153 0 24 -20 49 -109 136 -70 69 -116 107 -130 107
-20 0 -21 4 -21 101 0 55 -5 110 -11 122 -6 12 -40 49 -75 82 -69 65 -77 82
-41 87 20 3 22 9 25 72 4 81 -12 106 -65 106 l-33 0 0 155 c0 166 -8 205 -53
253 -44 47 -66 52 -235 52 l-159 0 -6 36 c-8 47 -51 102 -93 120 -24 10 -79
14 -192 14 -148 0 -161 -1 -192 -22z m391 -67 c17 -17 29 -40 29 -55 l0 -26
-218 0 c-120 0 -221 2 -224 5 -11 11 5 56 29 80 25 25 28 25 190 25 l165 0 29
-29z m579 -631 l0 -30 -100 0 -100 0 0 30 0 30 100 0 100 0 0 -30z m-38 -127
c5 -21 30 -51 73 -88 l65 -57 0 -132 c0 -128 -1 -133 -25 -156 l-25 -23 0 101
c0 139 -3 142 -149 142 -107 0 -110 -1 -131 -27 -20 -26 -21 -37 -18 -161 4
-161 4 -162 117 -162 l75 0 -54 -55 c-52 -53 -57 -55 -106 -55 -86 0 -84 -6
-84 279 l0 247 65 58 c38 33 68 69 71 84 10 42 13 43 67 40 48 -3 51 -5 59
-35z m-355 -254 l28 -11 -30 -14 c-39 -17 -112 -17 -150 0 l-30 14 25 10 c34
14 122 15 157 1z m383 -134 l0 -115 -90 0 -90 0 0 115 0 115 90 0 90 0 0 -115z
m-724 20 c53 -31 86 -83 92 -145 4 -46 4 -47 -28 -53 -39 -8 -50 -3 -43 21 8
31 -24 90 -59 112 -115 70 -240 -60 -165 -171 28 -42 87 -65 129 -50 l29 10
-3 -42 c-3 -40 -5 -42 -38 -45 -75 -7 -152 33 -188 96 -31 57 -35 95 -18 154
37 129 174 182 292 113z m354 19 c0 -25 -90 -132 -135 -162 -27 -18 -52 -32
-57 -32 -4 0 -8 46 -8 103 l0 102 100 0 c68 0 100 -4 100 -11z m5 -449 c-31
-108 -152 -198 -284 -211 l-61 -7 0 195 0 195 63 5 c86 7 167 47 236 118 l56
57 3 -150 c2 -111 -1 -164 -13 -202z m-412 303 c23 -27 22 -57 -5 -85 -50 -53
-130 -2 -106 68 17 49 75 58 111 17z"/>
<path d="M1432 1200 c0 -14 2 -19 5 -12 2 6 2 18 0 25 -3 6 -5 1 -5 -13z"/>
<path d="M597 1493 c-4 -3 -7 -41 -7 -84 l0 -78 -82 -3 -83 -3 -3 -124 c-2
-82 1 -128 9 -137 8 -10 34 -14 85 -14 l74 0 0 -73 c0 -43 5 -78 12 -85 17
-17 239 -17 256 0 7 7 12 42 12 85 l0 73 73 0 c43 0 78 5 85 12 13 13 18 222
6 252 -5 13 -22 16 -85 16 l-79 0 0 73 c0 43 -5 78 -12 85 -13 13 -249 18
-261 5z m213 -138 l5 -80 78 -3 77 -3 0 -79 0 -79 -77 -3 -78 -3 -3 -77 -3
-78 -79 0 -79 0 -3 78 -3 77 -80 5 -80 5 0 75 0 75 80 5 80 5 3 70 c1 39 5 76
7 83 3 9 25 12 77 10 l73 -3 5 -80z"/>
<path d="M1644 566 c-10 -26 4 -48 28 -44 17 2 23 10 23 28 0 18 -6 26 -23 28
-13 2 -25 -3 -28 -12z"/>
<path d="M1733 503 c-19 -7 -16 -50 4 -57 24 -10 51 20 37 41 -12 19 -23 24
-41 16z"/>
<path d="M1554 475 c-4 -9 0 -23 9 -32 21 -21 49 -9 45 19 -4 28 -45 38 -54
13z"/>
<path d="M1642 411 c-21 -13 -10 -46 16 -49 27 -4 40 22 22 43 -14 17 -20 18
-38 6z"/>
<path d="M1477 398 c-21 -11 -22 -31 -3 -47 20 -16 46 -3 46 24 0 27 -19 37
-43 23z"/>
<path d="M1544 316 c-10 -26 4 -48 28 -44 17 2 23 10 23 28 0 18 -6 26 -23 28
-13 2 -25 -3 -28 -12z"/>
<path d="M1381 301 c-8 -15 -7 -23 4 -35 22 -22 47 -9 43 23 -4 32 -33 40 -47
12z"/>
<path d="M1454 226 c-10 -26 4 -48 28 -44 17 2 23 10 23 28 0 18 -6 26 -23 28
-13 2 -25 -3 -28 -12z"/>
</g>
</svg>
